# xmcd
#
# Track frame offsets:
#	150
#	14236
#	27914
#	52018
#	65960
#	88224
#	99265
#	121695
#	144895
#	162063
#
# Disc length: 2319 seconds
# Revision: 0
# Processed by: cddbd v1.5.2PL0 Copyright (c) Steve Scherf et al.
# Submitted via: dBpowerAMP V12.0
#
DISCID=84090d0a
DTITLE=Don 'Sugarcane' Harris - Sugarcane [Epic] (L)
DYEAR=1970
DGENRE=Blues
TTITLE0=I'm Unconscious
TTITLE1=You're Making Me Cry
TTITLE2=Take It All Off
TTITLE3=A Little Soul Food
TTITLE4=Don't You Think I've Paid Enough
TTITLE5=Do It Yourself
TTITLE6=Tears Are Made of Dreams
TTITLE7=Funk and Wagner
TTITLE8=You Could've Had Me Baby
TTITLE9=Yours Eternally
EXTD=
EXTT0=
EXTT1=
EXTT2=
EXTT3=
EXTT4=
EXTT5=
EXTT6=
EXTT7=
EXTT8=
EXTT9=
PLAYORDER=
